<mxfile host="app.diagrams.net" modified="2021-01-26T06:12:32.892Z" agent="5.0 (Windows NT 10.0; Win64; x64) AppleWebKit/537.36 (KHTML, like Gecko) Chrome/87.0.4280.141 Safari/537.36" etag="UHF30w287f__GQplZspQ" version="14.2.7" type="github">
  <diagram id="R2lEEEUBdFMjLlhIrx00" name="Page-1">
    <mxGraphModel dx="1185" dy="799" grid="1" gridSize="10" guides="1" tooltips="1" connect="1" arrows="1" fold="1" page="1" pageScale="1" pageWidth="827" pageHeight="1169" math="0" shadow="0" extFonts="Permanent Marker^https://fonts.googleapis.com/css?family=Permanent+Marker">
      <root>
        <mxCell id="0" />
        <mxCell id="1" parent="0" />
        <mxCell id="rQlDtDrj5K_MvWdmBDgF-3" value="" style="group" vertex="1" connectable="0" parent="1">
          <mxGeometry x="370" y="150" width="100" height="60" as="geometry" />
        </mxCell>
        <mxCell id="rQlDtDrj5K_MvWdmBDgF-1" value="C端" style="rounded=1;whiteSpace=wrap;html=1;" vertex="1" parent="rQlDtDrj5K_MvWdmBDgF-3">
          <mxGeometry width="100" height="60" as="geometry" />
        </mxCell>
        <mxCell id="rQlDtDrj5K_MvWdmBDgF-2" value="sdk" style="rounded=1;whiteSpace=wrap;html=1;" vertex="1" parent="rQlDtDrj5K_MvWdmBDgF-3">
          <mxGeometry x="50" y="40" width="50" height="20" as="geometry" />
        </mxCell>
        <mxCell id="rQlDtDrj5K_MvWdmBDgF-10" style="edgeStyle=none;curved=1;orthogonalLoop=1;jettySize=auto;html=1;exitX=0.5;exitY=1;exitDx=0;exitDy=0;entryX=0.5;entryY=0;entryDx=0;entryDy=0;" edge="1" parent="1" source="rQlDtDrj5K_MvWdmBDgF-4" target="rQlDtDrj5K_MvWdmBDgF-9">
          <mxGeometry relative="1" as="geometry" />
        </mxCell>
        <mxCell id="rQlDtDrj5K_MvWdmBDgF-4" value="钱包网关" style="rounded=1;whiteSpace=wrap;html=1;" vertex="1" parent="1">
          <mxGeometry x="280" y="300" width="100" height="60" as="geometry" />
        </mxCell>
        <mxCell id="rQlDtDrj5K_MvWdmBDgF-11" style="edgeStyle=none;curved=1;orthogonalLoop=1;jettySize=auto;html=1;exitX=0.5;exitY=1;exitDx=0;exitDy=0;entryX=0.5;entryY=0;entryDx=0;entryDy=0;" edge="1" parent="1" source="rQlDtDrj5K_MvWdmBDgF-5" target="rQlDtDrj5K_MvWdmBDgF-9">
          <mxGeometry relative="1" as="geometry" />
        </mxCell>
        <mxCell id="rQlDtDrj5K_MvWdmBDgF-5" value="人脸网关" style="rounded=1;whiteSpace=wrap;html=1;" vertex="1" parent="1">
          <mxGeometry x="460" y="300" width="100" height="60" as="geometry" />
        </mxCell>
        <mxCell id="rQlDtDrj5K_MvWdmBDgF-6" style="orthogonalLoop=1;jettySize=auto;html=1;curved=1;exitX=0;exitY=1;exitDx=0;exitDy=0;" edge="1" parent="1" source="rQlDtDrj5K_MvWdmBDgF-2" target="rQlDtDrj5K_MvWdmBDgF-4">
          <mxGeometry relative="1" as="geometry">
            <mxPoint x="420" y="190" as="sourcePoint" />
            <Array as="points">
              <mxPoint x="400" y="220" />
              <mxPoint x="340" y="240" />
            </Array>
          </mxGeometry>
        </mxCell>
        <mxCell id="rQlDtDrj5K_MvWdmBDgF-7" style="edgeStyle=none;curved=1;orthogonalLoop=1;jettySize=auto;html=1;exitX=0;exitY=1;exitDx=0;exitDy=0;entryX=0.5;entryY=0;entryDx=0;entryDy=0;dashed=1;" edge="1" parent="1" source="rQlDtDrj5K_MvWdmBDgF-2" target="rQlDtDrj5K_MvWdmBDgF-5">
          <mxGeometry relative="1" as="geometry">
            <Array as="points">
              <mxPoint x="450" y="220" />
              <mxPoint x="510" y="250" />
            </Array>
          </mxGeometry>
        </mxCell>
        <mxCell id="rQlDtDrj5K_MvWdmBDgF-14" style="edgeStyle=none;curved=1;orthogonalLoop=1;jettySize=auto;html=1;exitX=0.5;exitY=1;exitDx=0;exitDy=0;entryX=0.5;entryY=0;entryDx=0;entryDy=0;" edge="1" parent="1" source="rQlDtDrj5K_MvWdmBDgF-9" target="rQlDtDrj5K_MvWdmBDgF-13">
          <mxGeometry relative="1" as="geometry" />
        </mxCell>
        <mxCell id="rQlDtDrj5K_MvWdmBDgF-15" style="edgeStyle=none;curved=1;orthogonalLoop=1;jettySize=auto;html=1;exitX=0.5;exitY=1;exitDx=0;exitDy=0;entryX=0.5;entryY=0;entryDx=0;entryDy=0;" edge="1" parent="1" source="rQlDtDrj5K_MvWdmBDgF-9" target="rQlDtDrj5K_MvWdmBDgF-12">
          <mxGeometry relative="1" as="geometry" />
        </mxCell>
        <mxCell id="rQlDtDrj5K_MvWdmBDgF-19" style="edgeStyle=none;curved=1;orthogonalLoop=1;jettySize=auto;html=1;exitX=0.5;exitY=1;exitDx=0;exitDy=0;entryX=0.524;entryY=0.133;entryDx=0;entryDy=0;entryPerimeter=0;" edge="1" parent="1" source="rQlDtDrj5K_MvWdmBDgF-9" target="rQlDtDrj5K_MvWdmBDgF-18">
          <mxGeometry relative="1" as="geometry" />
        </mxCell>
        <mxCell id="rQlDtDrj5K_MvWdmBDgF-9" value="人脸后台" style="rounded=1;whiteSpace=wrap;html=1;" vertex="1" parent="1">
          <mxGeometry x="370" y="430" width="100" height="60" as="geometry" />
        </mxCell>
        <mxCell id="rQlDtDrj5K_MvWdmBDgF-20" style="edgeStyle=none;curved=1;orthogonalLoop=1;jettySize=auto;html=1;exitX=0.5;exitY=1;exitDx=0;exitDy=0;entryX=0.88;entryY=0.25;entryDx=0;entryDy=0;entryPerimeter=0;" edge="1" parent="1" source="rQlDtDrj5K_MvWdmBDgF-12" target="rQlDtDrj5K_MvWdmBDgF-18">
          <mxGeometry relative="1" as="geometry" />
        </mxCell>
        <mxCell id="rQlDtDrj5K_MvWdmBDgF-12" value="公安人脸三要素" style="rounded=1;whiteSpace=wrap;html=1;" vertex="1" parent="1">
          <mxGeometry x="450" y="560" width="100" height="60" as="geometry" />
        </mxCell>
        <mxCell id="rQlDtDrj5K_MvWdmBDgF-21" style="edgeStyle=none;curved=1;orthogonalLoop=1;jettySize=auto;html=1;exitX=0.5;exitY=1;exitDx=0;exitDy=0;entryX=0.875;entryY=0.5;entryDx=0;entryDy=0;entryPerimeter=0;" edge="1" parent="1" source="rQlDtDrj5K_MvWdmBDgF-13" target="rQlDtDrj5K_MvWdmBDgF-18">
          <mxGeometry relative="1" as="geometry" />
        </mxCell>
        <mxCell id="rQlDtDrj5K_MvWdmBDgF-13" value="图像组活体" style="rounded=1;whiteSpace=wrap;html=1;" vertex="1" parent="1">
          <mxGeometry x="560" y="560" width="100" height="60" as="geometry" />
        </mxCell>
        <mxCell id="rQlDtDrj5K_MvWdmBDgF-18" value="安全存储&lt;br&gt;SFS" style="ellipse;shape=cloud;whiteSpace=wrap;html=1;" vertex="1" parent="1">
          <mxGeometry x="365" y="650" width="105" height="70" as="geometry" />
        </mxCell>
      </root>
    </mxGraphModel>
  </diagram>
</mxfile>
